# xmcd
#
# Track frame offsets:
#	150
#	11514
#	22309
#	33408
#	45095
#	55932
#	65372
#	75851
#	86206
#	98568
#	110987
#	120987
#	133554
#	144411
#	154903
#	166265
#	175857
#	185349
#	198496
#	211413
#	225917
#	236592
#	245921
#	254781
#	265520
#	277620
#	292017
#	303476
#
# Disc length: 4205 seconds
#
# Revision: 0
# Processed by: cddbd v1.5.1PL2 Copyright (c) Steve Scherf et al.
# Submitted via: dBpowerAMP V4.0
#
DISCID=7f106b1c
DTITLE=Various Artist - Aladdin and Imperial Vocal Group Magic Volume Three
DYEAR=1900
DGENRE=Rhythm and Blues
TTITLE0=Candy Coated Kisses - Monitors 
TTITLE1=Toy Bells - Bees 
TTITLE2=Johnny Darling - Feathers 
TTITLE3=Early Sunday Morning - Sha Weez 
TTITLE4=Tired Of Your Sexy Ways - Mac Burney and Four Jacks 
TTITLE5=I Didn't Want To Do It - Scholars 
TTITLE6=I Love Her So - Velvetones 
TTITLE7=Sunny Side Of the Street - Bees 
TTITLE8=I Want To Be Loved - Bees 
TTITLE9=Can't Keep From Crying - Five Keys 
TTITLE10=This Is My Story - Turbans
TTITLE11=Dear Lori - Shades 
TTITLE12=I Do Believe - Crystals 
TTITLE13=I Love My Baby - Crystals 
TTITLE14=Is It Too Late - Fidelitones 
TTITLE15=Miss Lucy - Kidds 
TTITLE16=Love Me - Avalons 
TTITLE17=I Miss You - Avalons 
TTITLE18=Three O'Clock In The Morning - Ebonaires 
TTITLE19=Baby, You're The One - Ebonaires 
TTITLE20=Get Away Baby - Bees 
TTITLE21=The Crazy Song - Mellow Drops 
TTITLE22=Everyone Should Know - Jayhawks 
TTITLE23=I Want Your For My Own - Minor Bops 
TTITLE24=I-YI - Hawks
TTITLE25=Why, Oh Why - Five Keys 
TTITLE26=I Had A Dream Last Night - Aladdins
TTITLE27=Old Black Mule - Three Dots and A Dash 
EXTD=\n
EXTT0=
EXTT1=
EXTT2=
EXTT3=
EXTT4=
EXTT5=
EXTT6=
EXTT7=
EXTT8=
EXTT9=
EXTT10=
EXTT11=
EXTT12=
EXTT13=
EXTT14=
EXTT15=
EXTT16=
EXTT17=
EXTT18=
EXTT19=
EXTT20=
EXTT21=
EXTT22=
EXTT23=
EXTT24=
EXTT25=
EXTT26=
EXTT27=
PLAYORDER=
